<?xml version="1.0" encoding="utf-8"?>
<!-- Generator: Adobe Illustrator 18.0.0, SVG Export Plug-In . SVG Version: 6.00 Build 0)  -->
<!DOCTYPE svg PUBLIC "-//W3C//DTD SVG 1.1//EN" "http://www.w3.org/Graphics/SVG/1.1/DTD/svg11.dtd">
<svg version="1.1" id="Layer_1" xmlns="http://www.w3.org/2000/svg" xmlns:xlink="http://www.w3.org/1999/xlink" x="0px" y="0px"
	 viewBox="0 0 178.1 63.8" enable-background="new 0 0 178.1 63.8" xml:space="preserve">
<g>
	<path fill="#4A4A4A" d="M28.3,62.4c0,0.9-0.4,1.3-1.3,1.3H6.6c-1.8,0-3.4-0.7-4.7-2c-1.3-1.3-2-2.9-2-4.7v-36
		c0-0.9,0.4-1.3,1.3-1.3h5.3c0.9,0,1.3,0.4,1.3,1.3v33.3c0,0.9,0.4,1.3,1.3,1.3H27c0.9,0,1.3,0.4,1.3,1.3V62.4z"/>
	<path fill="#4A4A4A" d="M65.4,54.5c0,2.6-0.9,4.8-2.7,6.6c-1.8,1.8-4,2.7-6.6,2.7H41.4c-2.6,0-4.8-0.9-6.6-2.7
		c-1.8-1.8-2.7-4-2.7-6.6V21.2c0-0.9,0.4-1.3,1.3-1.3h5.3c0.9,0,1.3,0.4,1.3,1.3v33.3c0,0.9,0.4,1.3,1.3,1.3h14.8
		c0.9,0,1.3-0.4,1.3-1.3V21.2c0-0.9,0.4-1.3,1.3-1.3h5.3c0.9,0,1.3,0.4,1.3,1.3V54.5z"/>
	<path fill="#4A4A4A" d="M100.6,62.4c0,0.9-0.4,1.3-1.3,1.3H78.9c-1.8,0-3.4-0.7-4.7-2c-1.3-1.3-2-2.9-2-4.7v-36
		c0-0.9,0.4-1.3,1.3-1.3h5.3c0.9,0,1.3,0.4,1.3,1.3v33.3c0,0.9,0.4,1.3,1.3,1.3h17.7c0.9,0,1.3,0.4,1.3,1.3V62.4z"/>
	<path fill="#4A4A4A" d="M128.7,42.2h-14.8c-0.9,0-1.3-0.4-1.3-1.3V29.1c0-0.9,0.4-1.3,1.3-1.3h14.8c0.9,0,1.3,0.4,1.3,1.3v11.8
		C130,41.8,129.6,42.2,128.7,42.2z M137.6,57.2c0-0.9-0.4-1.3-1.3-1.3h-22.3c-0.9,0-1.3-0.4-1.3-1.3v-3c0-0.9,0.4-1.3,1.3-1.3h17.4
		c1.8,0,3.4-0.7,4.7-2c1.3-1.3,2-2.9,2-4.7V29.2c0-2.6-0.9-4.8-2.7-6.6c-1.8-1.8-4-2.7-6.6-2.7H114c-2.6,0-4.8,0.9-6.6,2.7
		c-1.8,1.8-2.7,4-2.7,6.6v25.3c0,2.6,0.9,4.8,2.7,6.6c1.8,1.8,4,2.7,6.6,2.7h22.3c0.9,0,1.3-0.4,1.3-1.3V57.2z"/>
	<path fill="#4A4A4A" d="M168.8,55.8H154c-0.9,0-1.3-0.4-1.3-1.3V42.8c0-0.9,0.4-1.3,1.3-1.3h14.8c0.9,0,1.3,0.4,1.3,1.3v11.7
		C170.1,55.4,169.7,55.8,168.8,55.8z M178.1,29.1c0-2.6-0.9-4.8-2.7-6.6c-1.8-1.8-4-2.7-6.6-2.7h-22.3c-0.9,0-1.3,0.4-1.3,1.3v5.3
		c0,0.9,0.4,1.3,1.3,1.3h22.3c0.9,0,1.3,0.4,1.3,1.3v3.1c0,0.9-0.4,1.3-1.3,1.3h-17.4c-1.8,0-3.4,0.7-4.7,2c-1.3,1.3-2,2.9-2,4.7
		v14.3c0,2.6,0.9,4.7,2.7,6.6c1.8,1.8,4,2.7,6.6,2.7h14.7c2.6,0,4.8-0.9,6.6-2.7c1.8-1.8,2.7-4,2.7-6.6V29.1z M163.5,11.4h-3.1
		c-0.9,0-1.3-0.4-1.3-1.3V6.9c0-0.9,0.4-1.3,1.3-1.3h3.1c0.9,0,1.3,0.4,1.3,1.3V10C164.8,10.9,164.4,11.4,163.5,11.4z M168.4,14.9
		c1.4-1.4,2.1-3,2.1-4.9V7c0-1.9-0.7-3.5-2.1-4.9c-1.4-1.4-3-2.1-4.9-2.1h-3c-1.9,0-3.5,0.7-4.9,2.1c-1.4,1.4-2.1,3-2.1,4.9v3
		c0,1.9,0.7,3.5,2.1,4.9c1.4,1.4,3,2.1,4.9,2.1h3C165.4,17,167,16.3,168.4,14.9z"/>
</g>
</svg>
